<svg xmlns="http://www.w3.org/2000/svg" width="203" height="60" viewBox="0 0 203 60" fill="none">
  <path d="M17.7053 20.8844L15.782 21.5064L22.8717 3.37392C23.1231 2.7205 23.4122 2.26813 23.739 2.01681C24.0784 1.76549 24.5435 1.63984 25.1343 1.63984H30.5647C30.9544 1.63984 31.2435 1.71523 31.4321 1.86602C31.6332 2.01681 31.7337 2.23671 31.7337 2.52573C31.7337 2.75191 31.6646 2.94668 31.5263 3.11004C31.4006 3.27339 31.1995 3.39277 30.923 3.46816L29.9613 3.73204C29.5339 3.8577 29.2448 4.03362 29.094 4.25981C28.9431 4.48599 28.8866 4.8504 28.9243 5.35303L30.3384 24.5976C30.3636 25.0248 30.4516 25.3264 30.6024 25.5023C30.7658 25.6782 31.0361 25.8227 31.4132 25.9358L32.356 26.1997C32.62 26.2751 32.8085 26.3882 32.9216 26.539C33.0473 26.6898 33.1102 26.8782 33.1102 27.1044C33.1102 27.3683 33.0159 27.5882 32.8274 27.7641C32.6388 27.9401 32.3434 28.028 31.9412 28.028H22.8717C22.4694 28.028 22.174 27.9526 21.9855 27.8018C21.7969 27.6385 21.7026 27.4186 21.7026 27.1421C21.7026 26.9285 21.7592 26.74 21.8723 26.5767C21.998 26.4133 22.2117 26.2877 22.5134 26.1997L23.4562 25.9358C23.9087 25.8102 24.2104 25.6531 24.3613 25.4646C24.5121 25.2635 24.575 24.9745 24.5498 24.5976L23.0037 4.80642L24.7572 4.69333L16.7248 25.4457C16.486 26.0615 16.2408 26.4573 15.9894 26.6332C15.7506 26.8091 15.4678 26.8971 15.1409 26.8971C14.9021 26.8971 14.6821 26.8657 14.481 26.8029C14.2799 26.74 14.0913 26.6018 13.9153 26.3882C13.7519 26.162 13.5759 25.8164 13.3874 25.3515L5.22296 5.25879L6.91996 4.65563L5.27953 24.0321C5.22925 24.5724 5.3361 24.9808 5.60007 25.2573C5.87662 25.5337 6.26001 25.7725 6.75026 25.9735L7.65532 26.2939C7.85644 26.3819 8.01357 26.4887 8.12671 26.6144C8.25241 26.74 8.31526 26.9097 8.31526 27.1233C8.31526 27.3872 8.2147 27.6071 8.01357 27.783C7.82502 27.9463 7.52962 28.028 7.12737 28.028H1.16904C0.766789 28.028 0.471387 27.9526 0.282832 27.8018C0.0942773 27.6385 0 27.4186 0 27.1421C0 26.8782 0.081707 26.6772 0.245121 26.539C0.408535 26.3882 0.62223 26.2625 0.886207 26.162L1.64043 25.917C2.06782 25.7662 2.40721 25.5463 2.65862 25.2573C2.91003 24.9682 3.06087 24.5599 3.11115 24.0321L4.67616 5.67346C4.72644 5.09543 4.66359 4.66191 4.4876 4.3729C4.32419 4.07132 4.0225 3.8577 3.58254 3.73204L2.67748 3.50586C2.37579 3.4179 2.15581 3.29852 2.01753 3.14773C1.87926 2.98438 1.81012 2.77704 1.81012 2.52573C1.81012 1.93513 2.21237 1.63984 3.01687 1.63984H8.37183C8.92492 1.63984 9.36488 1.75293 9.69171 1.97911C10.0311 2.19273 10.3265 2.63254 10.5779 3.29852L17.7053 20.8844Z" fill="#B88FCC"/>
  <path d="M47.2041 25.2761L44.3757 30.3841L36.645 13.2695C36.4313 12.7669 36.205 12.4276 35.9662 12.2517C35.7399 12.0632 35.388 11.8998 34.9103 11.7616C34.6589 11.6862 34.4829 11.5857 34.3823 11.46C34.2944 11.3344 34.2504 11.171 34.2504 10.9699C34.2504 10.7186 34.3384 10.5239 34.5143 10.3856C34.6903 10.2348 34.9354 10.1594 35.2497 10.1594H43.6969C44.0112 10.1594 44.2563 10.2286 44.4323 10.3668C44.6083 10.505 44.6963 10.6998 44.6963 10.9511C44.6963 11.1521 44.6397 11.3218 44.5266 11.46C44.4135 11.5857 44.2123 11.6799 43.9232 11.7427L43.2256 11.8747C42.6473 12.0003 42.3079 12.214 42.2074 12.5155C42.1194 12.8171 42.2325 13.3449 42.5468 14.0988L47.2041 25.2761ZM43.6215 31.0061L44.8094 28.1034L45.4882 26.784L50.4661 14.3439C50.7678 13.5899 50.8683 13.037 50.7678 12.6852C50.6672 12.3333 50.3278 12.0946 49.7496 11.9689L48.9765 11.7993C48.6999 11.7239 48.4988 11.6171 48.3731 11.4789C48.2474 11.3406 48.1846 11.1647 48.1846 10.9511C48.1846 10.6998 48.2725 10.505 48.4485 10.3668C48.6371 10.2286 48.8885 10.1594 49.2027 10.1594H54.5577C54.872 10.1594 55.1171 10.2348 55.2931 10.3856C55.469 10.5239 55.557 10.7186 55.557 10.9699C55.557 11.1333 55.5005 11.2841 55.3873 11.4223C55.2868 11.5605 55.0982 11.6799 54.8217 11.7804C54.2686 11.9564 53.8412 12.1951 53.5395 12.4967C53.2378 12.7857 52.9487 13.2821 52.6721 13.9857L45.9408 30.5914C45.2368 32.2878 44.5832 33.6009 43.9798 34.5308C43.3764 35.4607 42.7228 36.1015 42.0188 36.4534C41.3274 36.8178 40.4915 37 39.511 37C38.0529 37 36.8964 36.6105 36.0416 35.8314C35.1869 35.0523 34.7595 34.0973 34.7595 32.9664C34.7595 32.1622 34.9543 31.5276 35.344 31.0627C35.7462 30.5977 36.2742 30.3653 36.9278 30.3653C37.5815 30.3653 38.078 30.56 38.4174 30.9496C38.7568 31.3391 39.0397 31.8606 39.2659 32.514L39.4922 33.2491C39.5927 33.6889 39.7562 34.0219 39.9824 34.2481C40.2213 34.4743 40.4852 34.5874 40.7744 34.5874C41.076 34.5874 41.3589 34.4994 41.6228 34.3235C41.8994 34.1476 42.1948 33.802 42.5091 33.2868C42.8359 32.7716 43.2067 32.0114 43.6215 31.0061Z" fill="#B88FCC"/>
  <path d="M39.511 37C40.4915 37 41.3274 36.8178 42.0188 36.4534C42.1149 36.4053 42.2101 36.3519 42.3044 36.2931C42.218 35.9221 41.818 34.9221 41.3098 34.4874C41.1385 34.554 40.96 34.5873 40.7744 34.5873C40.4852 34.5873 40.2213 34.4743 39.9824 34.2481C39.7562 34.0219 39.5927 33.6889 39.4922 33.2491L39.2659 32.514C39.0397 31.8606 38.7568 31.3391 38.4174 30.9495C38.078 30.56 37.5815 30.3652 36.9278 30.3652C36.2742 30.3652 35.7462 30.5977 35.344 31.0626C34.9543 31.5276 34.7595 32.1621 34.7595 32.9664C34.7595 34.0973 35.1869 35.0523 36.0416 35.8314C36.8964 36.6104 38.0529 37 39.511 37Z" fill="#B88FCC"/>
  <path d="M39.4605 33.711C38.4585 33.711 37.6882 34.131 37.1496 34.971C36.611 35.7983 36.3417 36.8547 36.3417 38.1402C36.3417 39.5148 36.611 40.7176 37.1496 41.7485C37.7007 42.7667 38.5587 43.4795 39.7235 43.8868C40.3498 44.0904 40.9072 44.3322 41.3956 44.6122C41.8841 44.8923 42.3538 45.2423 42.8047 45.6623C43.2682 46.0823 43.7629 46.6232 44.289 47.2851L51.3907 56.3153C51.7038 56.6972 52.0107 56.9772 52.3113 57.1554C52.6244 57.3208 52.9814 57.4226 53.3822 57.4608C53.7204 57.499 53.9834 57.5881 54.1713 57.7281C54.3592 57.8681 54.4531 58.0845 54.4531 58.3772C54.4531 58.6827 54.3467 58.9181 54.1337 59.0836C53.9208 59.2363 53.6139 59.3127 53.2131 59.3127H48.272C47.7584 59.3127 47.3138 59.2427 46.938 59.1027C46.5748 58.95 46.2366 58.6763 45.9235 58.2818L38.6902 49.1751C37.9262 48.2078 37.2937 47.5142 36.7927 47.0941C36.3042 46.6741 35.847 46.3941 35.4212 46.2541C33.9181 45.7068 32.7783 44.8732 32.0018 43.7531C31.2378 42.6331 30.8557 41.3031 30.8557 39.763C30.8557 38.3375 31.2127 37.0584 31.9266 35.9256C32.6406 34.7801 33.6739 33.8701 35.0266 33.1955C36.3919 32.521 38.0264 32.1837 39.9302 32.1837C41.5459 32.1837 42.955 32.4446 44.1574 32.9664C45.3599 33.4883 46.293 34.2074 46.9568 35.1238C47.6206 36.0274 47.9526 37.0711 47.9526 38.2548C47.9526 39.4512 47.6582 40.5139 47.0695 41.4431C46.4934 42.3722 45.5728 43.1422 44.3077 43.7531C43.0552 44.3513 41.427 44.7841 39.4229 45.0514L39.2538 44.2495C40.3936 43.995 41.2266 43.3458 41.7526 42.3022C42.2912 41.2585 42.5605 39.9603 42.5605 38.4075C42.5605 36.9311 42.2724 35.7792 41.6962 34.9519C41.1201 34.1246 40.3748 33.711 39.4605 33.711ZM37.0557 46.445C36.3543 46.5341 35.7405 46.8332 35.2145 47.3423C34.6884 47.8514 34.2814 48.4815 33.9933 49.2324C33.7052 49.9706 33.5612 50.7343 33.5612 51.5234C33.5612 52.6689 33.749 53.6743 34.1248 54.5398C34.5131 55.3926 35.0642 56.0544 35.7781 56.5253C36.5046 56.9835 37.3625 57.2126 38.352 57.2126C39.4417 57.2126 40.4312 56.9645 41.3205 56.4681C42.2098 55.959 42.9676 55.1699 43.5938 54.1007L44.7774 55.0744C43.7879 56.6017 42.6168 57.7854 41.2641 58.6254C39.9239 59.4654 38.2456 59.8855 36.229 59.8855C34.463 59.8855 32.9662 59.58 31.7388 58.9691C30.5238 58.3454 29.597 57.5245 28.9582 56.5063C28.3194 55.4753 28 54.3489 28 53.1271C28 51.867 28.3444 50.7024 29.0333 49.6333C29.7222 48.5642 30.7305 47.6796 32.0581 46.9796C33.3858 46.2796 35.0078 45.8596 36.9242 45.7196L37.0557 46.445ZM46.938 52.5161L48.535 49.5569C48.8481 49.0988 49.0485 48.6851 49.1362 48.316C49.2239 47.9469 49.1988 47.6351 49.061 47.3805C48.9358 47.1132 48.6915 46.916 48.3283 46.7887L47.3701 46.5214C47.1322 46.4323 46.9568 46.3178 46.8441 46.1777C46.7439 46.0377 46.6938 45.885 46.6938 45.7196C46.6938 45.465 46.794 45.2486 46.9944 45.0704C47.2073 44.8795 47.4766 44.7841 47.8023 44.7841H53.1756C53.9396 44.7841 54.3216 45.0832 54.3216 45.6814C54.3216 45.9105 54.259 46.1077 54.1337 46.2732C54.021 46.4387 53.8018 46.6105 53.4762 46.7887C52.9501 46.9923 52.4804 47.2851 52.0671 47.6669C51.6537 48.0487 51.1465 48.6533 50.5453 49.4806L47.915 53.6616L46.938 52.5161Z" fill="#303030"/>
  <path d="M79.7402 54.7689C79.7402 56.3344 79.0325 57.6008 77.6172 58.5681C76.2019 59.5227 74.3043 60 71.9245 60C69.6575 60 67.8977 59.5482 66.6452 58.6445C65.4052 57.7408 64.7852 56.5444 64.7852 55.0553C64.7852 54.1135 65.0357 53.3562 65.5367 52.7834C66.0502 52.1979 66.7391 51.9052 67.6033 51.9052C68.3423 51.9052 68.9435 52.1661 69.407 52.688C69.8704 53.1971 70.1021 53.9162 70.1021 54.8453V56.2199C70.1021 56.869 70.2649 57.3781 70.5906 57.7472C70.9162 58.1163 71.4548 58.3009 72.2063 58.3009C72.9704 58.3009 73.6029 58.0972 74.1039 57.6899C74.6049 57.2699 74.8554 56.6717 74.8554 55.8953C74.8554 55.2717 74.7176 54.6926 74.4421 54.158C74.179 53.6234 73.8659 53.0634 73.5027 52.4779C73.152 51.8797 72.8389 51.1925 72.5633 50.4161C72.3003 49.6269 72.1688 48.6851 72.1688 47.5905V35.8683C72.1688 35.5756 72.0936 35.3338 71.9433 35.1429C71.793 34.9519 71.555 34.831 71.2294 34.7801L69.9142 34.5319C69.6136 34.481 69.3882 34.3792 69.2379 34.2265C69.1001 34.061 69.0312 33.8383 69.0312 33.5583C69.0312 33.2655 69.1252 33.0428 69.313 32.8901C69.5009 32.7373 69.789 32.661 70.1773 32.661H79.6463C80.0471 32.661 80.3352 32.7373 80.5105 32.8901C80.6984 33.0428 80.7923 33.2655 80.7923 33.5583C80.7923 34.0292 80.5293 34.3537 80.0032 34.5319L78.9323 34.7801C78.6317 34.8692 78.4 35.0029 78.2372 35.181C78.0744 35.3592 77.993 35.5883 77.993 35.8683V47.2087C77.993 48.1251 78.0806 48.9142 78.256 49.576C78.4313 50.2252 78.6317 50.8106 78.8572 51.3325C79.0952 51.8543 79.3018 52.3889 79.4772 52.9361C79.6525 53.4707 79.7402 54.0816 79.7402 54.7689Z" fill="#303030"/>
  <path d="M93.969 40.8512C95.9104 40.8512 97.6138 41.2585 99.0792 42.0731C100.545 42.8749 101.684 43.995 102.499 45.4332C103.325 46.8587 103.739 48.5133 103.739 50.397C103.739 52.1916 103.313 53.808 102.461 55.2462C101.622 56.6717 100.457 57.7981 98.9665 58.6254C97.476 59.4527 95.7476 59.8664 93.7811 59.8664C91.8522 59.8664 90.1551 59.4591 88.6896 58.6445C87.2242 57.8299 86.0781 56.7035 85.2515 55.2653C84.4248 53.8271 84.0115 52.1788 84.0115 50.3206C84.0115 48.5005 84.4311 46.8778 85.2703 45.4523C86.122 44.0268 87.2931 42.9067 88.7836 42.0922C90.2866 41.2649 92.0151 40.8512 93.969 40.8512ZM95.3029 57.8618C96.1671 57.7217 96.856 57.3208 97.3696 56.659C97.8956 55.9844 98.2275 55.068 98.3653 53.9098C98.5031 52.7389 98.4217 51.3261 98.1211 49.6715C97.833 48.0424 97.4134 46.6996 96.8623 45.6432C96.3112 44.5741 95.6599 43.804 94.9084 43.3331C94.1569 42.8622 93.3365 42.7031 92.4472 42.8558C91.5955 42.9958 90.9066 43.4031 90.3805 44.0777C89.867 44.7395 89.5413 45.6559 89.4036 46.8269C89.2658 47.9851 89.3472 49.3915 89.6478 51.0461C89.9359 52.6625 90.3555 54.0053 90.9066 55.0744C91.4577 56.1435 92.109 56.9135 92.8605 57.3845C93.612 57.8427 94.4261 58.0018 95.3029 57.8618Z" fill="#303030"/>
  <path d="M120.222 56.6208V55.7044L120.072 55.628V45.4141C120.072 45.0832 120.022 44.8477 119.922 44.7077C119.821 44.5677 119.665 44.4786 119.452 44.4404L118.456 44.345C118.231 44.2941 118.068 44.2113 117.968 44.0968C117.867 43.9822 117.817 43.8359 117.817 43.6577C117.817 43.4413 117.874 43.2695 117.986 43.1422C118.112 43.0149 118.343 42.8876 118.682 42.7604L122.176 41.4621C122.64 41.284 123.015 41.1567 123.303 41.0803C123.604 40.9912 123.886 40.9467 124.149 40.9467C124.55 40.9467 124.85 41.0612 125.051 41.2903C125.251 41.5194 125.351 41.8185 125.351 42.1876V56.3153C125.351 56.7099 125.408 57.0026 125.52 57.1935C125.633 57.3717 125.802 57.499 126.028 57.5754L126.723 57.7663C126.973 57.8427 127.155 57.9508 127.268 58.0909C127.38 58.2309 127.437 58.3963 127.437 58.5872C127.437 58.8418 127.349 59.0391 127.174 59.1791C127.011 59.3191 126.754 59.3891 126.403 59.3891H122.646C121.957 59.3891 121.381 59.1345 120.917 58.6254C120.454 58.1036 120.222 57.4354 120.222 56.6208ZM108.198 54.0816V45.4141C108.198 45.0832 108.148 44.8477 108.048 44.7077C107.96 44.5677 107.803 44.4786 107.578 44.4404L106.601 44.345C106.363 44.2941 106.194 44.2113 106.094 44.0968C105.994 43.9822 105.944 43.8359 105.944 43.6577C105.944 43.4413 106.006 43.2695 106.131 43.1422C106.257 43.0149 106.488 42.8876 106.827 42.7604L110.302 41.4621C110.803 41.2712 111.198 41.1376 111.486 41.0612C111.774 40.9849 112.024 40.9467 112.237 40.9467C112.663 40.9467 112.976 41.0612 113.177 41.2903C113.39 41.5194 113.496 41.8185 113.496 42.1876V53.2798C113.496 54.3998 113.759 55.2399 114.285 55.7999C114.811 56.3599 115.525 56.6399 116.427 56.6399C116.978 56.6399 117.567 56.5063 118.193 56.239C118.819 55.959 119.464 55.5262 120.128 54.9408L120.899 54.2725L121.763 55.1889L121.011 55.8571C119.433 57.3336 118.055 58.3709 116.878 58.9691C115.701 59.5673 114.592 59.8664 113.553 59.8664C111.949 59.8664 110.653 59.3382 109.663 58.2818C108.687 57.2254 108.198 55.8253 108.198 54.0816Z" fill="#303030"/>
  <path d="M136.958 49.2706C136.958 47.4251 137.214 45.8787 137.728 44.6313C138.254 43.3713 138.937 42.4295 139.776 41.8058C140.615 41.1694 141.517 40.8512 142.481 40.8512C143.684 40.8512 144.61 41.2012 145.262 41.9013C145.913 42.5885 146.239 43.5749 146.239 44.8604C146.239 45.9932 146.007 46.846 145.544 47.4187C145.08 47.9787 144.479 48.2587 143.74 48.2587C142.988 48.2587 142.412 48.0551 142.012 47.6478C141.623 47.2405 141.429 46.6741 141.429 45.9487V45.2423C141.429 44.8477 141.335 44.555 141.147 44.3641C140.972 44.1604 140.69 44.0586 140.302 44.0586C139.851 44.0586 139.419 44.2431 139.006 44.6122C138.605 44.9813 138.279 45.5414 138.029 46.2923C137.778 47.0305 137.653 47.9914 137.653 49.1751L136.958 49.2706ZM137.333 42.1685L137.653 46.4832V56.2962C137.653 56.6654 137.722 56.939 137.859 57.1172C137.997 57.2826 138.254 57.3972 138.63 57.4608L140.245 57.709C140.546 57.7599 140.765 57.8554 140.903 57.9954C141.041 58.1354 141.11 58.3327 141.11 58.5872C141.11 58.8418 141.022 59.0391 140.847 59.1791C140.671 59.3191 140.408 59.3891 140.058 59.3891H131.284C130.933 59.3891 130.67 59.3191 130.495 59.1791C130.332 59.0263 130.25 58.8291 130.25 58.5872C130.25 58.3963 130.307 58.2372 130.42 58.1099C130.532 57.9699 130.708 57.8554 130.946 57.7663L131.678 57.5754C131.904 57.499 132.073 57.3717 132.186 57.1935C132.298 57.0026 132.355 56.7099 132.355 56.3153V45.4332C132.355 45.115 132.305 44.8859 132.204 44.7459C132.104 44.5932 131.948 44.4977 131.735 44.4595L130.739 44.3831C130.513 44.3322 130.351 44.2495 130.25 44.135C130.15 44.0204 130.1 43.874 130.1 43.6959C130.1 43.4795 130.163 43.3077 130.288 43.1804C130.413 43.0404 130.645 42.9131 130.983 42.7986L134.384 41.5194C134.997 41.2776 135.448 41.1249 135.736 41.0612C136.025 40.9849 136.256 40.9467 136.432 40.9467C136.695 40.9467 136.895 41.0421 137.033 41.233C137.183 41.4112 137.283 41.7231 137.333 42.1685Z" fill="#303030"/>
  <path d="M155.67 42.1685V56.3153C155.67 56.7099 155.72 56.9963 155.82 57.1745C155.933 57.3526 156.102 57.4863 156.327 57.5754L157.023 57.7663C157.411 57.9445 157.605 58.2054 157.605 58.549C157.605 59.1091 157.254 59.3891 156.553 59.3891H149.301C148.95 59.3891 148.687 59.3191 148.512 59.1791C148.349 59.0391 148.268 58.8418 148.268 58.5872C148.268 58.3963 148.324 58.2372 148.437 58.1099C148.549 57.9699 148.725 57.8554 148.963 57.7663L149.695 57.5754C149.921 57.499 150.09 57.3717 150.203 57.1935C150.315 57.0026 150.372 56.7099 150.372 56.3153V45.395C150.372 45.0641 150.322 44.8286 150.221 44.6886C150.121 44.5486 149.965 44.4595 149.752 44.4213L148.756 44.345C148.531 44.2941 148.368 44.2113 148.268 44.0968C148.167 43.9822 148.117 43.8359 148.117 43.6577C148.117 43.4413 148.18 43.2695 148.305 43.1422C148.43 43.0022 148.662 42.8749 149 42.7604L152.476 41.4621C152.952 41.284 153.334 41.1567 153.622 41.0803C153.923 40.9912 154.198 40.9467 154.449 40.9467C154.85 40.9467 155.15 41.0612 155.351 41.2903C155.563 41.5067 155.67 41.7994 155.67 42.1685ZM155.088 46.4259L154.223 45.5286L154.956 44.8604C156.547 43.3713 157.931 42.334 159.108 41.7485C160.298 41.1503 161.413 40.8512 162.452 40.8512C164.068 40.8512 165.371 41.3731 166.36 42.4167C167.35 43.4604 167.844 44.8668 167.844 46.6359V56.2581C167.844 56.6781 167.901 56.9835 168.013 57.1745C168.139 57.3654 168.32 57.499 168.558 57.5754L169.216 57.7663C169.466 57.8554 169.642 57.9699 169.742 58.1099C169.855 58.2372 169.911 58.3963 169.911 58.5872C169.911 58.8418 169.83 59.0391 169.667 59.1791C169.504 59.3191 169.247 59.3891 168.896 59.3891H161.626C160.912 59.3891 160.555 59.1091 160.555 58.549C160.555 58.2054 160.755 57.9445 161.156 57.7663L161.87 57.5754C162.108 57.4863 162.277 57.3463 162.377 57.1554C162.49 56.9645 162.546 56.6654 162.546 56.2581V47.4187C162.546 46.2987 162.277 45.465 161.738 44.9177C161.212 44.3577 160.492 44.0777 159.578 44.0777C159.027 44.0777 158.432 44.2113 157.793 44.4786C157.154 44.7459 156.503 45.1723 155.839 45.7577L155.088 46.4259Z" fill="#303030"/>
  <path d="M183.836 56.9454V56.5635L183.479 56.4681V45.0895C183.479 44.1859 183.253 43.4922 182.802 43.0086C182.351 42.5249 181.719 42.2831 180.905 42.2831C180.166 42.2831 179.596 42.4422 179.195 42.7604C178.794 43.0786 178.594 43.4668 178.594 43.925V45.6241C178.594 46.3878 178.343 46.9796 177.842 47.3996C177.341 47.8069 176.634 48.0105 175.719 48.0105C174.93 48.0105 174.335 47.826 173.935 47.4569C173.534 47.0751 173.333 46.5596 173.333 45.9105C173.333 45.1086 173.659 44.3195 174.31 43.5431C174.962 42.7667 175.92 42.1304 177.185 41.634C178.462 41.1249 180.028 40.8703 181.882 40.8703C184.186 40.8703 185.896 41.3476 187.011 42.3022C188.138 43.244 188.702 44.5232 188.702 46.1396V56.0672C188.702 56.4235 188.771 56.6908 188.908 56.869C189.059 57.0472 189.272 57.1363 189.547 57.1363C189.823 57.1363 190.023 57.0726 190.148 56.9454C190.286 56.8054 190.405 56.6654 190.505 56.5253C190.58 56.449 190.656 56.379 190.731 56.3153C190.806 56.2517 190.9 56.2199 191.013 56.2199C191.163 56.2199 191.276 56.2835 191.351 56.4108C191.426 56.5253 191.463 56.6781 191.463 56.869C191.463 57.289 191.313 57.7345 191.013 58.2054C190.724 58.6636 190.286 59.0582 189.697 59.3891C189.109 59.7073 188.382 59.8664 187.518 59.8664C186.403 59.8664 185.508 59.6054 184.831 59.0836C184.168 58.5618 183.836 57.849 183.836 56.9454ZM172.544 55.3799C172.544 53.8016 173.246 52.5225 174.648 51.5425C176.051 50.5624 178.005 50.0724 180.51 50.0724C181.324 50.0724 182.057 50.1424 182.708 50.2824C183.372 50.4224 183.942 50.607 184.418 50.8361L184.024 52.077C183.585 51.8734 183.141 51.7143 182.69 51.5997C182.251 51.4852 181.775 51.4279 181.262 51.4279C180.222 51.4279 179.408 51.7016 178.819 52.2488C178.243 52.7834 177.955 53.528 177.955 54.4826C177.955 55.4371 178.199 56.169 178.688 56.6781C179.189 57.1872 179.834 57.4417 180.623 57.4417C181.299 57.4417 181.951 57.2826 182.577 56.9645C183.203 56.6463 183.729 56.2135 184.155 55.6662L184.55 56.7544C183.861 57.7472 182.934 58.5172 181.769 59.0645C180.617 59.5991 179.389 59.8664 178.087 59.8664C176.446 59.8664 175.112 59.4527 174.085 58.6254C173.058 57.7981 172.544 56.7163 172.544 55.3799Z" fill="#303030"/>
  <path d="M200.915 32.2409V56.3153C200.915 56.7099 200.965 57.0026 201.065 57.1935C201.178 57.3717 201.347 57.499 201.572 57.5754L202.286 57.7663C202.524 57.8427 202.699 57.9508 202.812 58.0909C202.937 58.2309 203 58.3963 203 58.5872C203 58.8418 202.912 59.0391 202.737 59.1791C202.574 59.3191 202.311 59.3891 201.948 59.3891H194.546C194.195 59.3891 193.932 59.3191 193.756 59.1791C193.594 59.0391 193.512 58.8418 193.512 58.5872C193.512 58.3963 193.569 58.2372 193.681 58.1099C193.794 57.9699 193.969 57.8554 194.207 57.7663L194.94 57.5754C195.178 57.499 195.347 57.3717 195.447 57.1935C195.56 57.0026 195.616 56.7099 195.616 56.3153V35.4483C195.616 35.1301 195.566 34.901 195.466 34.761C195.366 34.6083 195.209 34.5128 194.996 34.4747L194.019 34.3983C193.781 34.3474 193.612 34.2646 193.512 34.1501C193.412 34.0356 193.362 33.8892 193.362 33.711C193.362 33.4946 193.425 33.3228 193.55 33.1955C193.675 33.0682 193.907 32.941 194.245 32.8137L197.721 31.5155C198.222 31.3246 198.616 31.1909 198.904 31.1145C199.192 31.0382 199.443 31 199.656 31C200.082 31 200.395 31.1145 200.595 31.3436C200.808 31.5727 200.915 31.8718 200.915 32.2409Z" fill="#303030"/>
  <path d="M89.4992 10.7061C89.4992 11.9124 89.229 13.0056 88.6884 13.9857C88.1479 14.9659 87.3811 15.7889 86.3881 16.4549C85.4076 17.1083 84.226 17.5607 82.8433 17.812C82.3404 17.9 81.8691 17.9942 81.4291 18.0948C81.0017 18.1953 80.568 18.2832 80.1281 18.3586C79.6881 18.434 79.1979 18.4717 78.6573 18.4717C77.8654 18.4717 77.1175 18.4215 76.4135 18.3209C75.7096 18.2078 75.0622 18.0508 74.4714 17.8497C73.8806 17.6361 73.3589 17.3911 72.9064 17.1146L73.0196 15.3994C73.3841 15.6507 73.8052 15.8643 74.2829 16.0402C74.7605 16.2162 75.2822 16.3481 75.8479 16.4361C76.4261 16.524 77.0295 16.568 77.658 16.568C79.4933 16.568 80.92 16.0842 81.9382 15.1167C82.969 14.1365 83.4843 12.6915 83.4843 10.7815C83.4843 9.34896 83.1764 8.07981 82.5604 6.97402C81.957 5.86823 81.1023 5.00119 79.9961 4.3729C78.9025 3.73204 77.614 3.41161 76.1307 3.41161H74.4714V24.8614C74.4714 25.1379 74.5406 25.3641 74.6788 25.54C74.8171 25.7159 75.0245 25.8479 75.3011 25.9358L76.6021 26.1808C76.9038 26.2939 77.1112 26.4259 77.2243 26.5767C77.3375 26.7275 77.394 26.9159 77.394 27.1421C77.394 27.7327 77.0106 28.028 76.2438 28.028H66.9669C66.5773 28.028 66.2881 27.9526 66.0996 27.8018C65.911 27.6385 65.8168 27.4186 65.8168 27.1421C65.8168 26.6772 66.0807 26.3568 66.6087 26.1808L67.6835 25.9358C67.9977 25.8479 68.2303 25.7159 68.3811 25.54C68.5445 25.3641 68.6262 25.1379 68.6262 24.8614V4.80642C68.6262 4.52997 68.5445 4.30379 68.3811 4.12787C68.2303 3.95195 67.9977 3.82 67.6835 3.73204L66.6087 3.48701C66.0807 3.31109 65.8168 2.99066 65.8168 2.52573C65.8168 2.23671 65.911 2.01681 66.0996 1.86602C66.2881 1.71523 66.5773 1.63984 66.9669 1.63984H76.3381C79.1664 1.63984 81.5548 2.02938 83.5032 2.80846C85.4642 3.57497 86.9537 4.64306 87.9719 6.01274C88.9901 7.36984 89.4992 8.93429 89.4992 10.7061ZM78.6196 17.6989L84.3517 17.0392L89.2353 24.8426C89.4615 25.207 89.6941 25.4897 89.9329 25.6908C90.1843 25.8918 90.5174 26.0552 90.9323 26.1808C91.3219 26.2939 91.5859 26.4259 91.7242 26.5767C91.8624 26.7275 91.9316 26.9159 91.9316 27.1421C91.9316 27.4186 91.8373 27.6385 91.6488 27.8018C91.4602 27.9526 91.1648 28.028 90.7626 28.028H82.7301C81.9759 28.028 81.5988 27.7327 81.5988 27.1421C81.5988 26.9913 81.6428 26.8594 81.7308 26.7463C81.8188 26.6206 81.9633 26.5201 82.1645 26.4447L82.7113 26.2939C82.9878 26.1683 83.1387 26.0238 83.1638 25.8604C83.2015 25.6845 83.1324 25.4332 82.9564 25.1065L78.6196 17.6989Z" fill="#B88FCC"/>
  <path d="M110.957 16.8696C110.957 17.5481 110.762 18.0696 110.372 18.434C109.995 18.7984 109.442 18.9806 108.713 18.9806H96.9283V17.5104H104.659C105.3 17.5104 105.621 17.2214 105.621 16.6434C105.621 14.9973 105.319 13.747 104.716 12.8925C104.112 12.0255 103.301 11.592 102.283 11.592C101.504 11.592 100.813 11.8307 100.209 12.3082C99.6058 12.7857 99.1281 13.4705 98.7761 14.3627C98.4367 15.2423 98.267 16.3041 98.267 17.5481C98.267 19.9859 98.839 21.8142 99.9829 23.0331C101.127 24.2394 102.648 24.8426 104.546 24.8426C105.652 24.8426 106.62 24.629 107.45 24.2017C108.292 23.7619 108.945 23.1336 109.411 22.3169C109.637 22.0655 109.819 21.8959 109.957 21.8079C110.096 21.72 110.234 21.676 110.372 21.676C110.573 21.676 110.718 21.7702 110.806 21.9587C110.894 22.1347 110.938 22.3483 110.938 22.5996C110.888 23.6677 110.511 24.6478 109.807 25.54C109.103 26.4322 108.147 27.1484 106.941 27.6887C105.746 28.2291 104.376 28.4992 102.83 28.4992C101.007 28.4992 99.3921 28.1285 97.9842 27.3872C96.5763 26.6332 95.4701 25.584 94.6656 24.2394C93.8737 22.8823 93.4777 21.299 93.4777 19.4896C93.4777 17.5796 93.8548 15.8957 94.6091 14.4381C95.3759 12.9679 96.4695 11.8181 97.8899 10.9888C99.3104 10.1469 101.007 9.72593 102.981 9.72593C104.665 9.72593 106.098 10.0338 107.28 10.6495C108.474 11.2527 109.385 12.0946 110.014 13.1752C110.642 14.2433 110.957 15.4748 110.957 16.8696Z" fill="#B88FCC"/>
  <path d="M125.237 25.6154V25.2384L124.879 25.1442V13.9103C124.879 13.0182 124.653 12.3333 124.2 11.8558C123.748 11.3783 123.113 11.1396 122.296 11.1396C121.554 11.1396 120.982 11.2967 120.58 11.6108C120.178 11.9249 119.976 12.3082 119.976 12.7606V14.4381C119.976 15.1921 119.725 15.7764 119.222 16.191C118.719 16.5931 118.009 16.7942 117.092 16.7942C116.3 16.7942 115.703 16.612 115.3 16.2476C114.898 15.8706 114.697 15.3617 114.697 14.7208C114.697 13.9292 115.024 13.1501 115.677 12.3836C116.331 11.6171 117.293 10.9888 118.562 10.4987C119.844 9.9961 121.416 9.74478 123.276 9.74478C125.589 9.74478 127.305 10.216 128.424 11.1584C129.555 12.0883 130.121 13.3512 130.121 14.947V24.7483C130.121 25.1002 130.19 25.3641 130.328 25.54C130.479 25.7159 130.693 25.8039 130.969 25.8039C131.246 25.8039 131.447 25.741 131.573 25.6154C131.711 25.4772 131.83 25.3389 131.931 25.2007C132.006 25.1253 132.082 25.0562 132.157 24.9934C132.232 24.9305 132.327 24.8991 132.44 24.8991C132.591 24.8991 132.704 24.962 132.779 25.0876C132.855 25.2007 132.892 25.3515 132.892 25.54C132.892 25.9547 132.742 26.3945 132.44 26.8594C132.151 27.3118 131.711 27.7013 131.12 28.028C130.529 28.3422 129.8 28.4992 128.933 28.4992C127.814 28.4992 126.915 28.2416 126.236 27.7264C125.57 27.2112 125.237 26.5076 125.237 25.6154ZM113.905 24.0698C113.905 22.5116 114.609 21.2488 116.017 20.2812C117.425 19.3136 119.386 18.8299 121.9 18.8299C122.717 18.8299 123.452 18.899 124.106 19.0372C124.772 19.1754 125.344 19.3576 125.822 19.5838L125.426 20.809C124.986 20.6079 124.539 20.4508 124.087 20.3377C123.647 20.2247 123.169 20.1681 122.654 20.1681C121.611 20.1681 120.794 20.4383 120.203 20.9786C119.624 21.5064 119.335 22.2415 119.335 23.1839C119.335 24.1263 119.58 24.8489 120.071 25.3515C120.574 25.8541 121.221 26.1054 122.013 26.1054C122.692 26.1054 123.345 25.9484 123.974 25.6342C124.602 25.3201 125.13 24.8929 125.558 24.3525L125.954 25.4269C125.262 26.407 124.332 27.1673 123.163 27.7076C122.007 28.2354 120.775 28.4992 119.467 28.4992C117.821 28.4992 116.482 28.0908 115.451 27.2741C114.42 26.4573 113.905 25.3892 113.905 24.0698Z" fill="#B88FCC"/>
  <path d="M148.562 24.8614L148.393 24.7672V4.39175C148.393 4.0776 148.342 3.85142 148.242 3.71319C148.154 3.56241 147.997 3.46816 147.77 3.43046L146.79 3.35507C146.564 3.30481 146.4 3.22313 146.3 3.11004C146.199 2.99694 146.149 2.85244 146.149 2.67652C146.149 2.4629 146.205 2.29326 146.318 2.1676C146.444 2.04194 146.677 1.91628 147.016 1.79063L150.504 0.508916C150.982 0.332994 151.365 0.207336 151.654 0.131943C151.956 0.0439809 152.239 0 152.503 0C152.905 0 153.207 0.113092 153.408 0.339277C153.609 0.565461 153.71 0.860758 153.71 1.22517V24.9934C153.71 25.3829 153.766 25.6719 153.879 25.8604C153.993 26.0363 154.162 26.162 154.389 26.2374L155.086 26.4259C155.338 26.5013 155.52 26.6081 155.633 26.7463C155.746 26.8845 155.803 27.0479 155.803 27.2364C155.803 27.4877 155.715 27.6825 155.539 27.8207C155.375 27.9589 155.111 28.028 154.747 28.028H150.881C150.215 28.028 149.662 27.8207 149.222 27.406C148.782 26.9788 148.562 26.4196 148.562 25.7285V24.8614ZM134.798 19.5838C134.798 17.5858 135.2 15.8455 136.004 14.3627C136.809 12.8799 137.896 11.7365 139.266 10.9322C140.637 10.128 142.17 9.72593 143.867 9.72593C145.376 9.72593 146.702 10.0778 147.846 10.7815C149.002 11.4851 149.964 12.5093 150.731 13.8538L149.43 14.947C148.801 13.9166 148.097 13.1501 147.318 12.6475C146.551 12.1323 145.721 11.8747 144.829 11.8747C143.961 11.8747 143.188 12.1323 142.51 12.6475C141.831 13.1501 141.297 13.9292 140.907 14.9847C140.53 16.0277 140.341 17.3722 140.341 19.0183C140.341 20.5514 140.53 21.8205 140.907 22.8258C141.284 23.8185 141.799 24.5661 142.453 25.0688C143.119 25.5588 143.873 25.8039 144.716 25.8039C145.633 25.8039 146.488 25.5274 147.28 24.9745C148.085 24.4216 148.82 23.5797 149.486 22.4488L150.335 23.542C149.342 25.0876 148.191 26.3002 146.884 27.1798C145.577 28.0594 144.137 28.4992 142.566 28.4992C141.07 28.4992 139.738 28.1223 138.569 27.3683C137.4 26.6018 136.476 25.5526 135.797 24.2206C135.131 22.876 134.798 21.3304 134.798 19.5838Z" fill="#B88FCC"/>
  <path d="M165.836 11.4412C164.968 11.4412 164.289 11.6611 163.799 12.1009C163.322 12.5281 163.083 13.0747 163.083 13.7407C163.083 14.1428 163.171 14.5135 163.347 14.8528C163.535 15.1921 163.887 15.4999 164.403 15.7764C164.918 16.0528 165.672 16.3104 166.665 16.5492C168.614 16.9387 170.116 17.435 171.172 18.0382C172.228 18.6414 172.963 19.3388 173.378 20.1304C173.793 20.9221 174 21.8017 174 22.7692C174 24.5159 173.378 25.9107 172.133 26.9536C170.901 27.984 169.11 28.4992 166.76 28.4992C165.93 28.4992 165.251 28.4238 164.723 28.2731C164.195 28.1348 163.761 27.9966 163.422 27.8584C163.083 27.7076 162.781 27.6322 162.517 27.6322C162.24 27.6322 162.02 27.7076 161.857 27.8584C161.694 27.9966 161.537 28.1348 161.386 28.2731C161.235 28.4238 161.034 28.4992 160.782 28.4992C160.556 28.4992 160.386 28.4301 160.273 28.2919C160.16 28.1662 160.047 27.9401 159.934 27.6133L158.689 23.8436C158.551 23.3912 158.507 23.0268 158.557 22.7504C158.62 22.4739 158.796 22.2792 159.085 22.1661C159.374 22.0655 159.626 22.0655 159.84 22.1661C160.053 22.2666 160.254 22.4677 160.443 22.7692C161.009 23.7494 161.612 24.5347 162.253 25.1253C162.894 25.7033 163.567 26.1243 164.271 26.3882C164.987 26.6395 165.716 26.7652 166.458 26.7652C167.539 26.7652 168.343 26.5453 168.871 26.1054C169.412 25.6656 169.682 25.0813 169.682 24.3525C169.682 23.9127 169.569 23.5169 169.343 23.1651C169.116 22.8132 168.695 22.4865 168.079 22.1849C167.463 21.8833 166.571 21.6006 165.402 21.3367C163.78 20.9849 162.486 20.5325 161.518 19.9796C160.562 19.4267 159.871 18.7545 159.444 17.9628C159.029 17.1712 158.821 16.2476 158.821 15.1921C158.821 14.1114 159.104 13.1627 159.67 12.3459C160.236 11.5166 161.015 10.8757 162.008 10.4233C163.014 9.9584 164.183 9.72593 165.515 9.72593C166.37 9.72593 167.055 9.80132 167.57 9.95211C168.086 10.1029 168.507 10.26 168.834 10.4233C169.173 10.5741 169.487 10.6495 169.776 10.6495C170.065 10.6495 170.298 10.5741 170.474 10.4233C170.663 10.26 170.839 10.1029 171.002 9.95211C171.165 9.80132 171.367 9.72593 171.605 9.72593C171.794 9.72593 171.951 9.79504 172.077 9.93327C172.215 10.0589 172.316 10.2914 172.378 10.6307L173.283 14.2119C173.384 14.6769 173.409 15.0413 173.359 15.3051C173.309 15.569 173.145 15.7575 172.869 15.8706C172.58 15.9837 172.328 15.9711 172.114 15.8329C171.901 15.6947 171.681 15.4559 171.455 15.1167C170.688 13.7721 169.808 12.8234 168.815 12.2705C167.834 11.7176 166.841 11.4412 165.836 11.4412Z" fill="#B88FCC"/>
</svg>
